<svg width="388" height="388" viewBox="0 0 388 388" fill="none" xmlns="http://www.w3.org/2000/svg">
<g filter="url(#filter0_d_9_53)">
<rect x="23" y="23" width="342" height="342" rx="51" fill="white"/>
</g>
<g clip-path="url(#clip0_9_53)">
<path fill-rule="evenodd" clip-rule="evenodd" d="M187.778 331.202C182.821 320.427 172.052 313.525 160.2 313.525H101.035C86.6562 313.525 75 301.858 75 287.465V285.882L78.8359 259.387C86.2593 208.114 85.7907 156.006 77.446 104.875L75 89.8861L75.5112 89.6015C89.517 81.8017 100.989 70.1386 108.562 56H266.995C274.568 70.1386 286.04 81.8017 300.046 89.6015L300.557 89.8861L298.111 104.875C289.767 156.006 289.298 208.114 296.721 259.387L300.557 285.882V287.465C300.557 301.858 288.901 313.525 274.522 313.525H215.357C203.505 313.525 192.737 320.427 187.779 331.202H187.778Z" fill="#844139"/>
<path fill-rule="evenodd" clip-rule="evenodd" d="M254.864 68.4143C258.322 79.8096 265.333 88.9048 277.259 94.8159L277.297 94.8347L277.324 94.8479C278.608 95.4825 279.95 96.0805 281.351 96.6404L278.963 115.596C273.348 160.154 273.768 205.221 280.174 249.579L284.772 273.632L285.272 278.437C285.291 278.619 285.307 278.801 285.32 278.983L285.362 279.19L285.332 279.161C285.372 279.827 285.372 280.491 285.334 281.15L285.331 281.198L285.328 281.253L285.324 281.308L285.321 281.357L285.316 281.417L285.308 281.527L285.305 281.567C285.268 282.014 285.212 282.46 285.139 282.903L285.133 282.94L285.123 283.002L285.115 283.047L285.105 283.103L285.104 283.112L285.103 283.117L285.096 283.155L285.087 283.205L285.085 283.214L285.084 283.221L285.077 283.262L285.068 283.307L285.066 283.316L285.065 283.325L285.056 283.37L285.048 283.41L285.047 283.417L285.045 283.427L285.035 283.477L285.028 283.512L285.026 283.519L285.024 283.53L285.013 283.584L285.007 283.615L285.005 283.62L285.003 283.631L284.991 283.691L284.985 283.718L284.967 283.798L284.962 283.823L284.96 283.83L284.944 283.904L284.939 283.925C284.885 284.159 284.827 284.39 284.764 284.621L284.757 284.645L284.738 284.713L284.734 284.726L284.733 284.73L284.728 284.75L284.711 284.809L284.706 284.826L284.704 284.832L284.698 284.855L284.682 284.907L284.677 284.925L284.675 284.934L284.667 284.959L284.653 285.006L284.648 285.025L284.644 285.036L284.636 285.063L284.623 285.106L284.617 285.123L284.613 285.137L284.604 285.168L284.592 285.205L284.586 285.222L284.582 285.238L284.571 285.272L284.56 285.305L284.555 285.321L284.549 285.338L284.538 285.376L284.528 285.406L284.523 285.419L284.517 285.439L284.504 285.479L284.495 285.505L284.491 285.518L284.483 285.539L284.469 285.582L284.461 285.605L284.457 285.615L284.45 285.638L284.433 285.685L284.427 285.705L284.424 285.713L284.415 285.737L284.397 285.788L284.391 285.805L284.389 285.811L284.381 285.835L284.36 285.891L284.356 285.905L284.354 285.908L284.346 285.931L284.323 285.994L284.318 286.006L284.313 286.021L284.175 286.379L284.167 286.401L284.142 286.462L284.132 286.488L284.126 286.502L284.105 286.555L284.092 286.584L284.09 286.59L284.085 286.603L284.065 286.65L284.053 286.679L284.049 286.688L284.043 286.704L284.025 286.746L284.012 286.775L284.008 286.786L284 286.804L283.983 286.842L283.971 286.87L283.965 286.884L283.956 286.904L283.941 286.939L283.93 286.965L283.923 286.981L283.912 287.004L283.898 287.035L283.888 287.059L283.879 287.078L283.868 287.104L283.855 287.132L283.845 287.154L283.835 287.175L283.822 287.203L283.811 287.228L283.802 287.248L283.79 287.272L283.777 287.302L283.766 287.324L283.758 287.342L283.745 287.368L283.73 287.401L283.72 287.42L283.713 287.435L283.699 287.464L283.682 287.499L283.674 287.516L283.668 287.529L283.653 287.56L283.634 287.598L283.628 287.611L283.623 287.622L283.606 287.656L283.586 287.695L283.58 287.707L283.576 287.715L283.558 287.751L283.537 287.793L283.532 287.802L283.53 287.807L283.509 287.846L283.487 287.89L283.482 287.9L283.46 287.942L283.436 287.987L283.434 287.992L283.409 288.039L283.385 288.084L283.362 288.127L283.336 288.175L283.333 288.181L283.311 288.222L283.286 288.266L283.281 288.277L283.259 288.316L283.236 288.357L283.232 288.364L283.228 288.372L283.207 288.409L283.186 288.448L283.18 288.457L283.174 288.468L283.154 288.502L283.134 288.538L283.127 288.55L283.119 288.563L283.101 288.595L283.082 288.628L283.074 288.642L283.065 288.658L283.047 288.687L283.029 288.718L283.019 288.734L283.009 288.752L282.993 288.779L282.976 288.807L282.964 288.827L282.953 288.846L282.937 288.871L282.922 288.896L282.909 288.918L282.895 288.94L282.882 288.962L282.868 288.985L282.853 289.01L282.838 289.034L282.826 289.053L282.813 289.074L282.796 289.101L282.78 289.126L282.769 289.144L282.758 289.162L282.739 289.192L282.721 289.219L282.711 289.235L282.701 289.25L282.68 289.282L282.662 289.312L282.653 289.325L282.645 289.337L282.622 289.373L282.602 289.404L282.595 289.414L282.588 289.424L282.562 289.463L282.541 289.496L282.535 289.503L282.53 289.512L282.501 289.554L282.479 289.587L282.476 289.592L282.472 289.598L282.439 289.647L282.417 289.678L282.413 289.685L282.371 289.746L282.354 289.77L282.293 289.857L282.292 289.858L282.275 289.883L282.233 289.941L282.228 289.948L282.206 289.979L282.172 290.026L282.168 290.032L282.163 290.038L282.141 290.069L282.11 290.111L282.104 290.119L282.098 290.127L282.076 290.157L282.048 290.195L282.04 290.206L282.033 290.216L282.011 290.244L281.985 290.279L281.975 290.292L281.966 290.304L281.946 290.331L281.922 290.363L281.91 290.378L281.899 290.392L281.88 290.417L281.858 290.446L281.845 290.464L281.832 290.48L281.814 290.503L281.794 290.529L281.778 290.549L281.764 290.567L281.747 290.588L281.729 290.611L281.711 290.634L281.695 290.654L281.68 290.672L281.663 290.693L281.643 290.718L281.626 290.74L281.612 290.757L281.597 290.775L281.575 290.802L281.556 290.826L281.544 290.841L281.53 290.857L281.506 290.886L281.485 290.911L281.475 290.924L281.463 290.938L281.436 290.97L281.414 290.996L281.405 291.007L281.395 291.018L281.366 291.053L281.342 291.081L281.335 291.09L281.327 291.099L281.294 291.137L281.27 291.165L281.264 291.172L281.259 291.179L281.221 291.221L281.196 291.249L281.189 291.258L281.145 291.308L281.123 291.333L281.121 291.335L281.048 291.416C280.505 292.019 279.919 292.582 279.295 293.1L279.21 293.17L279.125 293.24C278.755 293.538 278.373 293.821 277.98 294.087C277.769 294.23 277.554 294.368 277.337 294.501L277.243 294.558L277.149 294.613L277.111 294.637C275.554 295.555 273.86 296.216 272.093 296.594L271.986 296.617L271.878 296.639C271.647 296.685 271.415 296.726 271.182 296.763L271.122 296.772L271.081 296.778C270.913 296.804 270.746 296.826 270.577 296.846L270.358 296.871C269.773 296.933 269.183 296.965 268.589 296.965H206.233L206.043 296.966L205.853 296.969L205.533 296.979L205.475 296.981L205.286 296.99L205.145 296.998C204.878 297.014 204.612 297.036 204.346 297.064L204.159 297.085L204.089 297.094L203.785 297.133L203.6 297.159L203.414 297.188L203.228 297.218C202.127 297.406 201.045 297.696 199.998 298.085L199.977 298.092L199.801 298.159L199.627 298.227L199.318 298.353L199.066 298.461L198.596 298.674L198.427 298.754C198.11 298.908 197.797 299.071 197.49 299.243L197.43 299.277L197.357 299.318C196.968 299.54 196.586 299.776 196.214 300.028L196.15 300.071C195.786 300.319 195.43 300.581 195.083 300.856L186.803 307.437L178.523 300.856L178.373 300.739C177.697 300.213 176.983 299.736 176.239 299.313L176.176 299.277L176.14 299.256C175.77 299.049 175.393 298.854 175.009 298.674L174.84 298.595L174.669 298.518L174.497 298.442L174.325 298.369L174.24 298.333L173.914 298.202L173.804 298.159L173.629 298.092L173.541 298.06C172.514 297.684 171.455 297.402 170.377 297.218L170.192 297.188L170.006 297.159L169.82 297.133L169.634 297.108L169.447 297.085L169.26 297.064C168.948 297.031 168.634 297.006 168.319 296.99L168.131 296.981L167.941 296.974L167.752 296.969L167.563 296.966L167.373 296.965H105.017C104.906 296.965 104.795 296.964 104.685 296.962L104.673 296.961C104.197 296.951 103.721 296.921 103.248 296.871L103.054 296.85C102.8 296.82 102.548 296.784 102.296 296.742L102.267 296.738L102.159 296.719C102.001 296.692 101.845 296.663 101.69 296.631L101.62 296.617L101.513 296.594C99.3744 296.137 97.3465 295.266 95.5447 294.032C95.3008 293.865 95.0613 293.691 94.826 293.511L94.7393 293.444L94.6526 293.377C93.9045 292.788 93.203 292.133 92.5572 291.416L92.4847 291.335L92.4829 291.333L92.4609 291.308L92.4168 291.258L92.4093 291.249L92.3845 291.221L92.3472 291.179L92.3415 291.172L92.3362 291.165L92.3116 291.137L92.2786 291.099L92.2707 291.09L92.2636 291.081L92.2398 291.053L92.2103 291.018L92.2008 291.007L92.1919 290.996L92.1694 290.97L92.1424 290.938L92.1311 290.924L92.1208 290.911L92.0998 290.886L92.0753 290.857L92.0621 290.841L92.05 290.826L92.0308 290.802L92.0088 290.775L91.9939 290.757L91.9801 290.74L91.9623 290.718L91.9427 290.693L91.926 290.672L91.9107 290.654L91.8948 290.634L91.877 290.611L91.8585 290.588L91.8418 290.567L91.8276 290.549L91.8119 290.529L91.7917 290.503L91.7739 290.48L91.7611 290.464L91.7476 290.446L91.7256 290.417L91.7064 290.392L91.6954 290.378L91.6836 290.363L91.6598 290.331L91.6392 290.304L91.6303 290.292L91.6204 290.279L91.5944 290.244L91.5731 290.216L91.5656 290.206L91.5575 290.195L91.5297 290.157L91.5074 290.127L91.5017 290.119L91.4953 290.111L91.4651 290.069L91.4423 290.038L91.438 290.032L91.4338 290.026L91.3997 289.979L91.3776 289.948L91.3727 289.941L91.3311 289.883L91.314 289.858L91.3129 289.857L91.2515 289.77L91.1928 289.685L91.1882 289.678L91.1669 289.647L91.1339 289.598L91.1299 289.592L91.1264 289.587L91.1044 289.554L91.0756 289.512L91.0702 289.503L91.0649 289.496L91.0436 289.463L91.018 289.424L91.0109 289.414L91.0041 289.404L90.9839 289.373L90.9608 289.337L90.9522 289.325L90.944 289.312L90.9252 289.282L90.9043 289.25L90.8943 289.235L90.8847 289.219L90.867 289.192L90.8481 289.162L90.8367 289.144L90.8257 289.126L90.8097 289.101L90.7927 289.074L90.7799 289.053L90.7674 289.034L90.7529 289.01L90.7376 288.985L90.7237 288.962L90.7102 288.94L90.6967 288.918L90.6835 288.896L90.6683 288.871L90.653 288.846L90.6413 288.827L90.6296 288.807L90.6132 288.779L90.5969 288.752L90.5865 288.734L90.5766 288.718L90.5584 288.687L90.541 288.658L90.5321 288.642L90.524 288.628L90.5048 288.595L90.4863 288.563L90.4785 288.55L90.4718 288.538L90.4515 288.502L90.4319 288.468L90.4255 288.457L90.4202 288.448L90.3989 288.409L90.3779 288.372L90.3733 288.364L90.3694 288.357L90.3467 288.316L90.3249 288.277L90.3193 288.266L90.2951 288.222L90.2724 288.181L90.2695 288.175L90.2436 288.127L90.2205 288.084L90.197 288.039L90.1718 287.992L90.1693 287.987L90.1455 287.942L90.1238 287.9L90.1188 287.89L90.0965 287.846L90.0762 287.807L90.0733 287.802L90.0691 287.793L90.0481 287.751L90.0296 287.715L90.0254 287.707L90.0197 287.695L90.0002 287.656L89.9831 287.622L89.9781 287.611L89.9714 287.598L89.9528 287.56L89.9376 287.529L89.9315 287.516L89.9234 287.499L89.9067 287.464L89.8924 287.435L89.8853 287.42L89.8761 287.401L89.8605 287.368L89.848 287.342L89.8399 287.324L89.8292 287.302L89.8153 287.272L89.8039 287.248L89.7951 287.228L89.7834 287.203L89.7706 287.175L89.7606 287.154L89.751 287.132L89.7379 287.104L89.7265 287.078L89.718 287.059L89.7073 287.035L89.6934 287.004L89.6831 286.981L89.676 286.965L89.6646 286.939L89.6494 286.904L89.6405 286.884L89.6344 286.87L89.6224 286.842L89.606 286.804L89.5982 286.786L89.5932 286.775L89.5811 286.746L89.563 286.704L89.5566 286.688L89.553 286.679L89.5406 286.65L89.5211 286.603L89.5157 286.59L89.5132 286.584L89.5012 286.555L89.4798 286.502L89.4742 286.488L89.4635 286.462L89.4389 286.401L89.4304 286.379L89.2929 286.021L89.2826 285.994L89.2595 285.931L89.2513 285.908L89.2499 285.905L89.2453 285.891L89.225 285.835L89.2165 285.811L89.2143 285.805L89.2083 285.788L89.1905 285.737L89.182 285.713L89.1792 285.705L89.1724 285.685L89.1561 285.638L89.1483 285.615L89.1447 285.605L89.1369 285.582L89.1223 285.539L89.1152 285.518L89.111 285.505L89.1021 285.479L89.0889 285.439L89.0825 285.419L89.0779 285.406L89.0679 285.376L89.0562 285.338L89.0505 285.321L89.0456 285.305L89.0345 285.272L89.0239 285.238L89.0193 285.222L89.0139 285.205L89.0019 285.168L88.9926 285.137L88.9883 285.123L88.983 285.106L88.9698 285.063L88.9613 285.036L88.9581 285.025L88.9528 285.006L88.9386 284.959L88.9311 284.934L88.9286 284.925L88.9233 284.907L88.9077 284.855L88.9013 284.832L88.8998 284.826L88.8949 284.809L88.8778 284.75L88.8725 284.73L88.8714 284.726L88.8675 284.713L88.8483 284.645L88.8419 284.621C88.7787 284.391 88.7203 284.159 88.667 283.925L88.6621 283.904L88.6457 283.83L88.6383 283.798L88.6241 283.732L88.6152 283.691L88.6027 283.631L88.6002 283.62L88.5992 283.615L88.5924 283.584L88.5814 283.53L88.5793 283.519L88.5778 283.512L88.5707 283.477L88.5611 283.427L88.559 283.417L88.5576 283.41L88.5498 283.37L88.5409 283.325L88.5395 283.316L88.5377 283.307L88.5292 283.262L88.5217 283.221L88.5203 283.214L88.5185 283.205L88.5096 283.155L88.5029 283.117L88.5018 283.112L88.5004 283.103L88.4904 283.047L88.4847 283.013L88.4723 282.94L88.467 282.907L88.4662 282.903C88.3934 282.461 88.3383 282.015 88.301 281.567L88.2978 281.527L88.2928 281.464L88.2893 281.417L88.2854 281.361L88.2815 281.308L88.2783 281.256L88.2743 281.198L88.2715 281.15C88.2332 280.487 88.2341 279.824 88.274 279.161L88.2434 279.19L88.2857 278.983C88.2987 278.801 88.3147 278.619 88.3337 278.437L88.8334 273.632L93.4322 249.579C99.8378 205.221 100.258 160.154 94.643 115.596L92.2544 96.6404C106.697 90.867 114.905 81.0561 118.742 68.4143H254.864Z" fill="white" fill-opacity="0.44"/>
<mask id="mask0_9_53" style="mask-type:luminance" maskUnits="userSpaceOnUse" x="88" y="68" width="198" height="240">
<path d="M254.62 68C258.079 79.3953 265.09 88.4905 277.016 94.4015L277.054 94.4204L277.08 94.4336C278.365 95.0682 279.707 95.6662 281.108 96.2261L278.719 115.182C273.105 159.74 273.524 204.807 279.93 249.165L284.529 273.217L285.029 278.023C285.048 278.205 285.063 278.387 285.077 278.569L285.119 278.775L285.088 278.747C285.128 279.413 285.129 280.077 285.091 280.735L285.088 280.784L285.084 280.839L285.081 280.894L285.077 280.943L285.073 281.003L285.065 281.112L285.061 281.153C285.024 281.6 284.969 282.046 284.896 282.488L284.89 282.525L284.879 282.588L284.872 282.633L284.862 282.689L284.861 282.697L284.859 282.703L284.853 282.741L284.844 282.79L284.842 282.8L284.841 282.807L284.833 282.848L284.825 282.893L284.823 282.901L284.821 282.91L284.813 282.955L284.805 282.995L284.803 283.003L284.801 283.013L284.792 283.062L284.784 283.098L284.783 283.105L284.781 283.115L284.77 283.17L284.763 283.201L284.762 283.206L284.76 283.217L284.747 283.277L284.741 283.304L284.724 283.383L284.718 283.409L284.717 283.416L284.7 283.49L284.695 283.511C284.642 283.744 284.584 283.976 284.52 284.207L284.514 284.23L284.495 284.299L284.491 284.312L284.49 284.316L284.484 284.335L284.467 284.395L284.462 284.412L284.461 284.418L284.455 284.44L284.439 284.492L284.434 284.511L284.431 284.52L284.424 284.545L284.409 284.592L284.404 284.61L284.401 284.621L284.392 284.649L284.379 284.691L284.374 284.709L284.37 284.722L284.36 284.753L284.348 284.791L284.343 284.808L284.338 284.823L284.328 284.857L284.317 284.891L284.312 284.907L284.306 284.924L284.294 284.961L284.284 284.991L284.28 285.005L284.273 285.025L284.26 285.065L284.251 285.091L284.247 285.103L284.24 285.125L284.225 285.168L284.218 285.191L284.214 285.201L284.206 285.224L284.19 285.271L284.183 285.291L284.18 285.299L284.172 285.323L284.154 285.374L284.148 285.391L284.146 285.397L284.137 285.421L284.117 285.477L284.112 285.49L284.111 285.494L284.103 285.516L284.08 285.579L284.075 285.591L284.069 285.607L283.932 285.965L283.923 285.987L283.899 286.048L283.888 286.074L283.882 286.088L283.861 286.141L283.849 286.169L283.847 286.176L283.841 286.189L283.822 286.236L283.809 286.265L283.806 286.274L283.799 286.289L283.781 286.332L283.769 286.36L283.764 286.372L283.756 286.39L283.74 286.428L283.728 286.456L283.722 286.47L283.713 286.49L283.698 286.525L283.686 286.55L283.679 286.567L283.669 286.59L283.655 286.621L283.644 286.645L283.636 286.664L283.624 286.689L283.611 286.718L283.602 286.74L283.592 286.761L283.579 286.789L283.567 286.814L283.558 286.833L283.547 286.858L283.533 286.888L283.522 286.91L283.514 286.927L283.502 286.954L283.486 286.986L283.477 287.006L283.47 287.021L283.456 287.05L283.439 287.085L283.431 287.102L283.425 287.115L283.409 287.146L283.391 287.183L283.384 287.197L283.379 287.208L283.362 287.242L283.343 287.281L283.337 287.292L283.333 287.301L283.314 287.337L283.293 287.379L283.289 287.387L283.286 287.393L283.266 287.432L283.243 287.476L283.239 287.485L283.217 287.527L283.193 287.573L283.19 287.577L283.165 287.625L283.142 287.67L283.119 287.712L283.093 287.761L283.09 287.766L283.067 287.808L283.043 287.852L283.037 287.862L283.016 287.902L282.993 287.943L282.989 287.949L282.984 287.958L282.963 287.995L282.942 288.033L282.937 288.043L282.93 288.053L282.911 288.088L282.891 288.124L282.884 288.135L282.876 288.149L282.858 288.181L282.838 288.214L282.83 288.228L282.821 288.243L282.804 288.273L282.786 288.303L282.776 288.32L282.765 288.338L282.749 288.365L282.733 288.393L282.721 288.412L282.709 288.432L282.694 288.457L282.679 288.482L282.666 288.504L282.652 288.526L282.639 288.548L282.625 288.571L282.609 288.595L282.595 288.619L282.582 288.639L282.57 288.659L282.553 288.686L282.537 288.712L282.526 288.73L282.514 288.748L282.495 288.777L282.478 288.805L282.468 288.82L282.458 288.836L282.437 288.868L282.418 288.897L282.41 288.91L282.402 288.923L282.378 288.959L282.358 288.99L282.351 289L282.344 289.01L282.319 289.049L282.297 289.081L282.292 289.089L282.287 289.097L282.258 289.14L282.236 289.172L282.232 289.178L282.228 289.184L282.195 289.232L282.174 289.263L282.169 289.27L282.127 289.331L282.111 289.355L282.049 289.443L282.048 289.444L282.031 289.469L281.99 289.527L281.985 289.534L281.963 289.565L281.928 289.612L281.924 289.618L281.92 289.624L281.897 289.655L281.867 289.697L281.861 289.705L281.855 289.713L281.833 289.743L281.805 289.781L281.797 289.791L281.789 289.802L281.768 289.83L281.742 289.865L281.732 289.878L281.723 289.89L281.702 289.917L281.679 289.948L281.667 289.963L281.656 289.978L281.637 290.003L281.615 290.031L281.601 290.049L281.588 290.065L281.571 290.088L281.55 290.114L281.535 290.134L281.52 290.152L281.504 290.173L281.485 290.197L281.468 290.219L281.452 290.239L281.436 290.258L281.42 290.279L281.4 290.304L281.382 290.326L281.368 290.342L281.353 290.361L281.331 290.388L281.312 290.412L281.3 290.426L281.287 290.442L281.263 290.472L281.242 290.497L281.231 290.51L281.22 290.523L281.193 290.555L281.17 290.582L281.162 290.593L281.152 290.604L281.122 290.639L281.099 290.667L281.092 290.675L281.084 290.684L281.051 290.723L281.026 290.751L281.021 290.757L281.015 290.764L280.978 290.807L280.953 290.835L280.945 290.844L280.901 290.893L280.879 290.919L280.878 290.92L280.805 291.002C280.262 291.605 279.676 292.168 279.052 292.686L278.967 292.756L278.881 292.825C278.512 293.124 278.13 293.407 277.736 293.673C277.525 293.816 277.31 293.954 277.093 294.087L277 294.143L276.906 294.199L276.867 294.222C275.311 295.141 273.617 295.802 271.85 296.18L271.742 296.203L271.635 296.225C271.404 296.271 271.172 296.312 270.939 296.349L270.879 296.358L270.838 296.364C270.67 296.389 270.502 296.412 270.334 296.432L270.114 296.457C269.53 296.519 268.94 296.55 268.346 296.55H205.989L205.799 296.552L205.61 296.554L205.289 296.564L205.232 296.566L205.043 296.575L204.902 296.584C204.635 296.6 204.368 296.622 204.102 296.65L203.916 296.671L203.846 296.679L203.542 296.718L203.356 296.745L203.17 296.773L202.985 296.804C201.884 296.991 200.802 297.282 199.755 297.671L199.733 297.678L199.558 297.745L199.384 297.813L199.075 297.939L198.822 298.047L198.353 298.259L198.184 298.34C197.867 298.494 197.554 298.657 197.246 298.829L197.186 298.862L197.114 298.904C196.724 299.126 196.343 299.362 195.971 299.614L195.907 299.657C195.543 299.905 195.187 300.166 194.84 300.442L186.559 307.023L178.279 300.442L178.13 300.325C177.453 299.799 176.74 299.322 175.995 298.898L175.933 298.862L175.897 298.842C175.526 298.634 175.149 298.44 174.766 298.259L174.596 298.18L174.426 298.103L174.254 298.028L174.082 297.955L173.997 297.919L173.67 297.787L173.561 297.745L173.386 297.678L173.297 297.646C172.271 297.269 171.212 296.988 170.134 296.804L169.949 296.773L169.763 296.745L169.577 296.718L169.39 296.693L169.203 296.671L169.016 296.65C168.704 296.617 168.391 296.592 168.076 296.575L167.887 296.566L167.698 296.559L167.509 296.554L167.319 296.552L167.13 296.55H104.773C104.662 296.55 104.552 296.549 104.442 296.547L104.43 296.547C103.954 296.537 103.478 296.507 103.004 296.457L102.81 296.435C102.557 296.405 102.304 296.369 102.053 296.328L102.024 296.324L101.915 296.305C101.758 296.278 101.602 296.248 101.446 296.217L101.377 296.203L101.269 296.18C99.131 295.723 97.1031 294.852 95.3012 293.617C95.0574 293.45 94.8179 293.277 94.5826 293.097L94.4959 293.03L94.4092 292.962C93.6611 292.374 92.9595 291.719 92.3138 291.002L92.2413 290.92L92.2395 290.919L92.2175 290.893L92.1734 290.844L92.1659 290.835L92.1411 290.807L92.1038 290.764L92.0981 290.757L92.0927 290.751L92.0682 290.723L92.0352 290.684L92.0273 290.675L92.0202 290.667L91.9964 290.639L91.9669 290.604L91.9573 290.593L91.9484 290.582L91.926 290.555L91.899 290.523L91.8877 290.51L91.8774 290.497L91.8564 290.472L91.8319 290.442L91.8187 290.426L91.8066 290.412L91.7874 290.388L91.7654 290.361L91.7505 290.342L91.7367 290.326L91.7189 290.304L91.6993 290.279L91.6826 290.258L91.6673 290.239L91.6514 290.219L91.6336 290.197L91.6151 290.173L91.5984 290.152L91.5841 290.134L91.5685 290.114L91.5483 290.088L91.5305 290.065L91.5177 290.049L91.5042 290.031L91.4822 290.003L91.463 289.978L91.452 289.963L91.4402 289.948L91.4164 289.917L91.3958 289.89L91.3869 289.878L91.377 289.865L91.351 289.83L91.3297 289.802L91.3222 289.791L91.3141 289.781L91.2863 289.743L91.264 289.713L91.2583 289.705L91.2519 289.697L91.2217 289.655L91.1989 289.624L91.1946 289.618L91.1904 289.612L91.1563 289.565L91.1342 289.534L91.1293 289.527L91.0877 289.469L91.0706 289.444L91.0695 289.443L91.0081 289.355L90.9494 289.27L90.9448 289.263L90.9235 289.232L90.8905 289.184L90.8865 289.178L90.883 289.172L90.8609 289.14L90.8321 289.097L90.8268 289.089L90.8215 289.081L90.8002 289.049L90.7746 289.01L90.7675 289L90.7607 288.99L90.7405 288.959L90.7173 288.923L90.7088 288.91L90.7006 288.897L90.6818 288.868L90.6609 288.836L90.6509 288.82L90.6413 288.805L90.6236 288.777L90.6047 288.748L90.5933 288.73L90.5823 288.712L90.5663 288.686L90.5493 288.659L90.5365 288.639L90.524 288.619L90.5095 288.595L90.4942 288.571L90.4803 288.548L90.4668 288.526L90.4533 288.504L90.4401 288.482L90.4249 288.457L90.4096 288.432L90.3979 288.412L90.3862 288.393L90.3698 288.365L90.3534 288.338L90.3431 288.32L90.3332 288.303L90.315 288.273L90.2976 288.243L90.2887 288.228L90.2806 288.214L90.2614 288.181L90.2429 288.149L90.2351 288.135L90.2283 288.124L90.2081 288.088L90.1885 288.053L90.1821 288.043L90.1768 288.033L90.1555 287.995L90.1345 287.958L90.1299 287.949L90.126 287.943L90.1032 287.902L90.0815 287.862L90.0759 287.852L90.0517 287.808L90.029 287.766L90.0261 287.761L90.0002 287.712L89.9771 287.67L89.9536 287.625L89.9284 287.577L89.9259 287.573L89.9021 287.527L89.8804 287.485L89.8754 287.476L89.853 287.432L89.8328 287.393L89.8299 287.387L89.8257 287.379L89.8047 287.337L89.7862 287.301L89.782 287.292L89.7763 287.281L89.7567 287.242L89.7397 287.208L89.7347 287.197L89.7279 287.183L89.7094 287.146L89.6942 287.115L89.6881 287.102L89.68 287.085L89.6633 287.05L89.649 287.021L89.6419 287.006L89.6327 286.986L89.6171 286.954L89.6046 286.927L89.5964 286.91L89.5858 286.888L89.5719 286.858L89.5605 286.833L89.5517 286.814L89.54 286.789L89.5272 286.761L89.5172 286.74L89.5076 286.718L89.4944 286.689L89.4831 286.664L89.4745 286.645L89.4639 286.621L89.45 286.59L89.4397 286.567L89.4326 286.55L89.4212 286.525L89.406 286.49L89.3971 286.47L89.391 286.456L89.379 286.428L89.3626 286.39L89.3548 286.372L89.3498 286.36L89.3377 286.332L89.3196 286.289L89.3132 286.274L89.3096 286.265L89.2972 286.236L89.2777 286.189L89.2723 286.176L89.2698 286.169L89.2578 286.141L89.2364 286.088L89.2307 286.074L89.2201 286.048L89.1955 285.987L89.187 285.965L89.0495 285.607L89.0392 285.579L89.0161 285.516L89.0079 285.494L89.0065 285.49L89.0019 285.477L88.9816 285.421L88.9731 285.397L88.9709 285.391L88.9649 285.374L88.9471 285.323L88.9386 285.299L88.9358 285.291L88.929 285.271L88.9127 285.224L88.9049 285.201L88.9013 285.191L88.8935 285.168L88.8789 285.125L88.8718 285.103L88.8675 285.091L88.8586 285.065L88.8455 285.025L88.8391 285.005L88.8345 284.991L88.8245 284.961L88.8128 284.924L88.8071 284.907L88.8022 284.891L88.7911 284.857L88.7805 284.823L88.7759 284.808L88.7705 284.791L88.7584 284.753L88.7492 284.722L88.7449 284.709L88.7396 284.691L88.7264 284.649L88.7179 284.621L88.7147 284.61L88.7094 284.592L88.6952 284.545L88.6877 284.52L88.6852 284.511L88.6799 284.492L88.6643 284.44L88.6579 284.418L88.6564 284.412L88.6515 284.395L88.6344 284.335L88.6291 284.316L88.628 284.312L88.6241 284.299L88.6049 284.23L88.5985 284.207C88.5353 283.976 88.4769 283.744 88.4236 283.511L88.4187 283.49L88.4023 283.416L88.3949 283.383L88.3806 283.318L88.3717 283.277L88.3593 283.217L88.3568 283.206L88.3557 283.201L88.349 283.17L88.338 283.115L88.3359 283.105L88.3344 283.098L88.3273 283.062L88.3177 283.013L88.3156 283.003L88.3142 282.995L88.3064 282.955L88.2975 282.91L88.2961 282.901L88.2943 282.893L88.2858 282.848L88.2783 282.807L88.2769 282.8L88.2751 282.79L88.2662 282.741L88.2595 282.703L88.2584 282.697L88.257 282.689L88.247 282.633L88.2413 282.599L88.2289 282.525L88.2236 282.493L88.2228 282.488C88.15 282.047 88.0949 281.601 88.0576 281.153L88.0544 281.112L88.0494 281.05L88.0459 281.003L88.042 280.947L88.0381 280.894L88.0349 280.842L88.0309 280.784L88.0281 280.735C87.9898 280.073 87.9907 279.409 88.0306 278.747L88 278.775L88.0423 278.569C88.0553 278.386 88.0713 278.205 88.0903 278.023L88.59 273.217L93.1887 249.165C99.5944 204.807 100.014 159.74 94.3996 115.182L92.011 96.2261C106.453 90.4527 114.661 80.6417 118.499 68H254.62Z" fill="white"/>
</mask>
<g mask="url(#mask0_9_53)">
<path fill-rule="evenodd" clip-rule="evenodd" d="M88.2305 62.2741H188.526V183.458H88.2305V62.2741Z" fill="#D9333F"/>
<path fill-rule="evenodd" clip-rule="evenodd" d="M187.528 62.81H286.948V182.936H187.528V62.81Z" fill="#75BA39"/>
<path fill-rule="evenodd" clip-rule="evenodd" d="M88 183H188V307H88V183Z" fill="#F0E639"/>
<path fill-rule="evenodd" clip-rule="evenodd" d="M187.528 182.936H286.948V315.61H187.528V182.936Z" fill="#1EC2E2"/>
</g>
<path fill-rule="evenodd" clip-rule="evenodd" d="M119.733 169.583C117.799 168.962 116.651 166.975 117.077 164.988C124.562 130.993 151.247 105.836 182.973 105.836C214.699 105.836 241.385 130.993 248.914 164.978C249.344 166.988 248.183 168.997 246.227 169.625C239.901 171.623 235.33 177.555 235.33 184.548C235.33 191.541 239.901 197.474 246.214 199.514C248.148 200.134 249.296 202.121 248.87 204.109C241.385 238.103 214.699 263.26 182.973 263.26C151.247 263.26 124.562 238.103 117.033 204.118C116.603 202.108 117.764 200.099 119.719 199.472C126.045 197.474 130.617 191.541 130.617 184.548C130.617 177.555 126.045 171.623 119.733 169.583Z" fill="#EAC00B"/>
<path fill-rule="evenodd" clip-rule="evenodd" d="M128.787 163.899C127.885 163.393 127.458 162.325 127.764 161.336C135.941 135.275 157.549 116.644 182.907 116.644C208.093 116.644 229.613 135.021 237.971 160.805C238.299 161.833 237.834 162.948 236.872 163.437C229.253 167.392 224.05 175.366 224.059 184.548C224.068 193.73 229.287 201.706 236.912 205.667C237.871 206.153 238.335 207.263 238.01 208.288C229.708 234.074 208.222 252.452 183.036 252.452C157.678 252.452 136.035 233.822 127.803 207.763C127.495 206.771 127.921 205.699 128.826 205.19C135.974 201.094 140.788 193.38 140.779 184.548C140.771 175.716 135.941 168 128.787 163.899Z" fill="#844139"/>
<path d="M159.719 169.149H210.572V171.44C207.775 171.44 205.868 171.694 204.978 172.331C204.088 172.84 203.325 173.603 202.817 174.367C202.181 175.257 201.927 177.93 201.927 182.511V212.669C201.927 217.122 202.181 219.667 202.69 220.558C203.071 221.322 203.834 222.085 204.724 222.721C205.741 223.358 207.648 223.739 210.572 223.739V226.03L187 226.03L187 223.23C190.178 223.23 186.544 223.612 187.815 223.23C188.959 222.848 189.976 222.085 190.612 220.813C191.375 219.54 191.756 216.868 191.756 212.669V173.094H172.814V197.144C172.814 206.179 172.432 212.541 171.542 216.232C170.78 219.922 169.127 222.594 166.839 224.375C164.423 226.157 161.626 227.048 158.575 227.048C153.363 227.048 150.693 224.884 150.693 220.431C150.693 218.904 151.074 217.759 151.964 216.741C152.854 215.85 153.871 215.341 155.27 215.341C156.668 215.341 158.067 215.977 159.338 217.122C160.863 218.777 162.135 219.54 163.025 219.54C164.804 219.54 166.203 217.886 167.093 214.832C167.856 211.651 168.364 206.179 168.364 198.417V185.819C168.364 179.329 167.856 175.385 166.966 173.985C165.949 172.585 163.533 171.822 159.719 171.44V169.149Z" fill="#EAC00B"/>
<path fill-rule="evenodd" clip-rule="evenodd" d="M172.912 164.595L161 141.233L176.014 148.379L187.174 132L198.335 148.379L213.349 141.233L201.437 164.595H172.912Z" fill="#EAC00B"/>
<rect x="187" y="40" width="151" height="292" fill="white"/>
</g>
<path fill-rule="evenodd" clip-rule="evenodd" d="M270.256 95.1001L274.774 71.969L281.246 84.9536L297.892 78.8783L296.665 96.5556L310.935 99.1779L289.96 109.927L270.256 95.1001Z" fill="#EAC00B"/>
<path d="M209.013 206.497L249.866 182.506L291.048 271.095L267.397 284.985L209.013 206.497Z" fill="#1EC2E2"/>
<path d="M258.542 182.394L217.74 158.316L260.18 104.798L283.802 118.738L258.542 182.394Z" fill="#EAC00B"/>
<path d="M187 218.5V145L253.278 158.481C256.54 159.145 258.883 162.013 258.883 165.341V202.207L187 218.5Z" fill="#75BA39"/>
<path d="M310.994 247.96C260.438 298.728 187 307.5 187 307.5V329.5C187 329.5 264.838 312.713 310.702 272.645C316.048 267.974 322.107 261.81 327.394 256.164C332.409 250.808 328.035 242.394 320.74 243.178C317.038 243.576 313.621 245.322 310.994 247.96Z" fill="#844139"/>
<path d="M240.182 129.974L260.572 94.8464C262.377 91.7363 266.494 90.9018 269.367 93.0634L322.672 133.158C325.1 134.984 325.78 138.337 324.255 140.965L318.422 151.013C315.407 156.207 309.018 158.372 303.467 156.082L240.182 129.974Z" fill="#1EC2E2"/>
<path d="M187 145L210.934 149.842L210.934 163.526C210.934 175.091 203.569 185.372 192.618 189.092L187 191L187 145Z" fill="#D9333F"/>
<defs>
<filter id="filter0_d_9_53" x="0" y="0" width="388" height="388" filterUnits="userSpaceOnUse" color-interpolation-filters="sRGB">
<feFlood flood-opacity="0" result="BackgroundImageFix"/>
<feColorMatrix in="SourceAlpha" type="matrix" values="0 0 0 0 0 0 0 0 0 0 0 0 0 0 0 0 0 0 127 0" result="hardAlpha"/>
<feMorphology radius="5" operator="erode" in="SourceAlpha" result="effect1_dropShadow_9_53"/>
<feOffset/>
<feGaussianBlur stdDeviation="14"/>
<feComposite in2="hardAlpha" operator="out"/>
<feColorMatrix type="matrix" values="0 0 0 0 0.0316667 0 0 0 0 0.6194 0 0 0 0 0.95 0 0 0 0.33 0"/>
<feBlend mode="normal" in2="BackgroundImageFix" result="effect1_dropShadow_9_53"/>
<feBlend mode="normal" in="SourceGraphic" in2="effect1_dropShadow_9_53" result="shape"/>
</filter>
<clipPath id="clip0_9_53">
<rect width="226" height="277" fill="white" transform="translate(70 55)"/>
</clipPath>
</defs>
</svg>
