<svg width="342" height="342" viewBox="0 0 342 342" fill="none" xmlns="http://www.w3.org/2000/svg">
<rect width="342" height="342" rx="51" fill="white"/>
<g clip-path="url(#clip0_14_49)">
<path fill-rule="evenodd" clip-rule="evenodd" d="M164.778 308.202C159.821 297.427 149.052 290.525 137.2 290.525H78.0351C63.6562 290.525 52 278.858 52 264.465V262.882L55.8359 236.387C63.2593 185.114 62.7907 133.006 54.446 81.8748L52 66.8861L52.5112 66.6015C66.517 58.8017 77.9892 47.1386 85.5624 33H243.995C251.568 47.1386 263.04 58.8017 277.046 66.6015L277.557 66.8861L275.111 81.8748C266.767 133.006 266.298 185.114 273.721 236.387L277.557 262.882V264.465C277.557 278.858 265.901 290.525 251.522 290.525H192.357C180.505 290.525 169.737 297.427 164.779 308.202H164.778Z" fill="#844139"/>
<path fill-rule="evenodd" clip-rule="evenodd" d="M231.864 45.4143C235.322 56.8096 242.333 65.9048 254.259 71.8158L254.297 71.8347L254.324 71.8479C255.608 72.4825 256.95 73.0805 258.351 73.6404L255.963 92.5962C250.348 137.154 250.768 182.221 257.174 226.579L261.772 250.632L262.272 255.437C262.291 255.619 262.307 255.801 262.32 255.983L262.362 256.19L262.332 256.161C262.372 256.827 262.372 257.491 262.334 258.15L262.331 258.198L262.328 258.253L262.324 258.308L262.321 258.357L262.316 258.417L262.308 258.527L262.305 258.567C262.268 259.014 262.212 259.46 262.139 259.903L262.133 259.94L262.123 260.002L262.115 260.047L262.105 260.103L262.104 260.112L262.103 260.117L262.096 260.155L262.087 260.205L262.085 260.214L262.084 260.221L262.077 260.262L262.068 260.307L262.066 260.316L262.065 260.325L262.056 260.37L262.048 260.41L262.047 260.417L262.045 260.427L262.035 260.477L262.028 260.512L262.026 260.519L262.024 260.53L262.013 260.584L262.007 260.615L262.005 260.62L262.003 260.631L261.991 260.691L261.985 260.718L261.967 260.798L261.962 260.823L261.96 260.83L261.944 260.904L261.939 260.925C261.885 261.158 261.827 261.39 261.764 261.621L261.757 261.645L261.738 261.713L261.734 261.726L261.733 261.73L261.728 261.75L261.711 261.809L261.706 261.826L261.704 261.832L261.698 261.854L261.682 261.907L261.677 261.925L261.675 261.934L261.667 261.959L261.653 262.006L261.648 262.025L261.644 262.036L261.636 262.063L261.623 262.106L261.617 262.123L261.613 262.137L261.604 262.168L261.592 262.205L261.586 262.222L261.582 262.238L261.571 262.272L261.56 262.305L261.555 262.321L261.549 262.338L261.538 262.376L261.528 262.405L261.523 262.419L261.517 262.439L261.504 262.479L261.495 262.505L261.491 262.518L261.483 262.539L261.469 262.582L261.461 262.605L261.457 262.615L261.45 262.638L261.433 262.685L261.427 262.705L261.424 262.713L261.415 262.737L261.397 262.788L261.391 262.805L261.389 262.811L261.381 262.835L261.36 262.891L261.356 262.905L261.354 262.908L261.346 262.931L261.323 262.994L261.318 263.006L261.313 263.021L261.175 263.379L261.167 263.401L261.142 263.462L261.132 263.488L261.126 263.502L261.105 263.555L261.092 263.584L261.09 263.59L261.085 263.603L261.065 263.65L261.053 263.679L261.049 263.688L261.043 263.704L261.025 263.746L261.012 263.775L261.008 263.786L261 263.804L260.983 263.842L260.971 263.87L260.965 263.884L260.956 263.904L260.941 263.939L260.93 263.965L260.923 263.981L260.912 264.004L260.898 264.035L260.888 264.059L260.879 264.078L260.868 264.104L260.855 264.132L260.845 264.154L260.835 264.175L260.822 264.203L260.811 264.228L260.802 264.248L260.79 264.272L260.777 264.302L260.766 264.324L260.758 264.342L260.745 264.368L260.73 264.401L260.72 264.42L260.713 264.435L260.699 264.464L260.682 264.499L260.674 264.516L260.668 264.529L260.653 264.56L260.634 264.597L260.628 264.611L260.623 264.622L260.606 264.656L260.586 264.695L260.58 264.707L260.576 264.715L260.558 264.751L260.537 264.793L260.532 264.802L260.53 264.807L260.509 264.846L260.487 264.89L260.482 264.899L260.46 264.942L260.436 264.987L260.434 264.992L260.409 265.039L260.385 265.084L260.362 265.127L260.336 265.175L260.333 265.181L260.311 265.222L260.286 265.266L260.281 265.277L260.259 265.316L260.236 265.357L260.232 265.364L260.228 265.372L260.207 265.409L260.186 265.448L260.18 265.457L260.174 265.468L260.154 265.502L260.134 265.538L260.127 265.55L260.119 265.563L260.101 265.595L260.082 265.628L260.074 265.642L260.065 265.658L260.047 265.687L260.029 265.718L260.019 265.734L260.009 265.752L259.993 265.779L259.976 265.807L259.964 265.826L259.953 265.846L259.937 265.871L259.922 265.896L259.909 265.918L259.895 265.94L259.882 265.962L259.868 265.985L259.853 266.01L259.838 266.034L259.826 266.053L259.813 266.074L259.796 266.101L259.78 266.126L259.769 266.144L259.758 266.162L259.739 266.191L259.721 266.219L259.711 266.235L259.701 266.25L259.68 266.282L259.662 266.312L259.653 266.324L259.645 266.337L259.622 266.373L259.602 266.404L259.595 266.414L259.588 266.424L259.562 266.463L259.541 266.496L259.535 266.503L259.53 266.512L259.501 266.554L259.479 266.587L259.476 266.592L259.472 266.598L259.439 266.646L259.417 266.678L259.413 266.685L259.371 266.746L259.354 266.77L259.293 266.857L259.292 266.858L259.275 266.883L259.233 266.941L259.228 266.948L259.206 266.979L259.172 267.026L259.168 267.032L259.163 267.038L259.141 267.069L259.11 267.111L259.104 267.119L259.098 267.127L259.076 267.157L259.048 267.195L259.04 267.206L259.033 267.216L259.011 267.244L258.985 267.279L258.975 267.292L258.966 267.304L258.946 267.331L258.922 267.363L258.91 267.378L258.899 267.392L258.88 267.417L258.858 267.446L258.845 267.464L258.832 267.48L258.814 267.503L258.794 267.529L258.778 267.549L258.764 267.567L258.747 267.588L258.729 267.611L258.711 267.634L258.695 267.654L258.68 267.672L258.663 267.693L258.643 267.718L258.626 267.74L258.612 267.757L258.597 267.775L258.575 267.802L258.556 267.826L258.544 267.841L258.53 267.857L258.506 267.886L258.485 267.911L258.475 267.924L258.463 267.938L258.436 267.97L258.414 267.996L258.405 268.007L258.395 268.018L258.366 268.053L258.342 268.081L258.335 268.09L258.327 268.099L258.294 268.137L258.27 268.165L258.264 268.172L258.259 268.179L258.221 268.221L258.196 268.249L258.189 268.258L258.145 268.308L258.123 268.333L258.121 268.335L258.048 268.416C257.505 269.019 256.919 269.582 256.295 270.1L256.21 270.17L256.125 270.24C255.755 270.538 255.373 270.821 254.98 271.087C254.769 271.23 254.554 271.368 254.337 271.501L254.243 271.558L254.149 271.613L254.111 271.637C252.554 272.555 250.86 273.216 249.093 273.594L248.986 273.617L248.878 273.639C248.647 273.685 248.415 273.726 248.182 273.763L248.122 273.772L248.081 273.778C247.913 273.804 247.746 273.826 247.577 273.846L247.358 273.871C246.773 273.933 246.183 273.965 245.589 273.965H183.233L183.043 273.966L182.853 273.969L182.533 273.979L182.475 273.981L182.286 273.99L182.145 273.998C181.878 274.014 181.612 274.036 181.346 274.064L181.159 274.085L181.089 274.094L180.785 274.133L180.6 274.159L180.414 274.188L180.228 274.218C179.127 274.406 178.045 274.696 176.998 275.085L176.977 275.092L176.801 275.159L176.627 275.227L176.318 275.353L176.066 275.461L175.596 275.674L175.427 275.754C175.11 275.908 174.797 276.071 174.49 276.243L174.43 276.277L174.357 276.318C173.968 276.54 173.586 276.776 173.214 277.028L173.15 277.071C172.786 277.319 172.43 277.581 172.083 277.856L163.803 284.437L155.523 277.856L155.373 277.739C154.697 277.213 153.983 276.736 153.239 276.313L153.176 276.277L153.14 276.256C152.77 276.049 152.393 275.854 152.009 275.674L151.84 275.595L151.669 275.518L151.497 275.442L151.325 275.369L151.24 275.333L150.914 275.202L150.804 275.159L150.629 275.092L150.541 275.06C149.514 274.684 148.455 274.402 147.377 274.218L147.192 274.188L147.006 274.159L146.82 274.133L146.634 274.108L146.447 274.085L146.26 274.064C145.948 274.031 145.634 274.006 145.319 273.99L145.131 273.981L144.941 273.974L144.752 273.969L144.563 273.966L144.373 273.965H82.0166C81.9057 273.965 81.7952 273.964 81.685 273.962L81.6733 273.961C81.1971 273.951 80.7215 273.921 80.2478 273.871L80.0538 273.85C79.8 273.82 79.5477 273.784 79.2964 273.742L79.267 273.738L79.1585 273.719C79.0015 273.692 78.8451 273.663 78.6898 273.631L78.6201 273.617L78.5128 273.594C76.3744 273.137 74.3465 272.266 72.5447 271.031C72.3008 270.865 72.0613 270.691 71.826 270.511L71.7393 270.444L71.6526 270.377C70.9045 269.788 70.203 269.133 69.5572 268.416L69.4847 268.335L69.4829 268.333L69.4609 268.308L69.4168 268.258L69.4093 268.249L69.3845 268.221L69.3472 268.179L69.3415 268.172L69.3362 268.165L69.3116 268.137L69.2786 268.099L69.2707 268.09L69.2636 268.081L69.2398 268.053L69.2103 268.018L69.2008 268.007L69.1919 267.996L69.1694 267.97L69.1424 267.938L69.1311 267.924L69.1208 267.911L69.0998 267.886L69.0753 267.857L69.0621 267.841L69.05 267.826L69.0308 267.802L69.0088 267.775L68.9939 267.757L68.9801 267.74L68.9623 267.718L68.9427 267.693L68.926 267.672L68.9107 267.654L68.8948 267.634L68.877 267.611L68.8585 267.588L68.8418 267.567L68.8276 267.549L68.8119 267.529L68.7917 267.503L68.7739 267.48L68.7611 267.464L68.7476 267.446L68.7256 267.417L68.7064 267.392L68.6954 267.378L68.6836 267.363L68.6598 267.331L68.6392 267.304L68.6303 267.292L68.6204 267.279L68.5944 267.244L68.5731 267.216L68.5656 267.206L68.5575 267.195L68.5297 267.157L68.5074 267.127L68.5017 267.119L68.4953 267.111L68.4651 267.069L68.4423 267.038L68.438 267.032L68.4338 267.026L68.3997 266.979L68.3776 266.948L68.3727 266.941L68.3311 266.883L68.314 266.858L68.3129 266.857L68.2515 266.77L68.1928 266.685L68.1882 266.678L68.1669 266.646L68.1339 266.598L68.1299 266.592L68.1264 266.587L68.1044 266.554L68.0756 266.512L68.0702 266.503L68.0649 266.496L68.0436 266.463L68.018 266.424L68.0109 266.414L68.0041 266.404L67.9839 266.373L67.9608 266.337L67.9522 266.324L67.944 266.312L67.9252 266.282L67.9043 266.25L67.8943 266.235L67.8847 266.219L67.867 266.191L67.8481 266.162L67.8367 266.144L67.8257 266.126L67.8097 266.101L67.7927 266.074L67.7799 266.053L67.7674 266.034L67.7529 266.01L67.7376 265.985L67.7237 265.962L67.7102 265.94L67.6967 265.918L67.6835 265.896L67.6683 265.871L67.653 265.846L67.6413 265.826L67.6296 265.807L67.6132 265.779L67.5969 265.752L67.5865 265.734L67.5766 265.718L67.5584 265.687L67.541 265.658L67.5321 265.642L67.524 265.628L67.5048 265.595L67.4863 265.563L67.4785 265.55L67.4718 265.538L67.4515 265.502L67.4319 265.468L67.4255 265.457L67.4202 265.448L67.3989 265.409L67.3779 265.372L67.3733 265.364L67.3694 265.357L67.3467 265.316L67.3249 265.277L67.3193 265.266L67.2951 265.222L67.2724 265.181L67.2695 265.175L67.2436 265.127L67.2205 265.084L67.197 265.039L67.1718 264.992L67.1693 264.987L67.1455 264.942L67.1238 264.899L67.1188 264.89L67.0965 264.846L67.0762 264.807L67.0733 264.802L67.0691 264.793L67.0481 264.751L67.0296 264.715L67.0254 264.707L67.0197 264.695L67.0002 264.656L66.9831 264.622L66.9781 264.611L66.9714 264.597L66.9528 264.56L66.9376 264.529L66.9315 264.516L66.9234 264.499L66.9067 264.464L66.8924 264.435L66.8853 264.42L66.8761 264.401L66.8605 264.368L66.848 264.342L66.8399 264.324L66.8292 264.302L66.8153 264.272L66.8039 264.248L66.7951 264.228L66.7834 264.203L66.7706 264.175L66.7606 264.154L66.751 264.132L66.7379 264.104L66.7265 264.078L66.718 264.059L66.7073 264.035L66.6934 264.004L66.6831 263.981L66.676 263.965L66.6646 263.939L66.6494 263.904L66.6405 263.884L66.6344 263.87L66.6224 263.842L66.606 263.804L66.5982 263.786L66.5932 263.775L66.5811 263.746L66.563 263.704L66.5566 263.688L66.553 263.679L66.5406 263.65L66.5211 263.603L66.5157 263.59L66.5132 263.584L66.5012 263.555L66.4798 263.502L66.4742 263.488L66.4635 263.462L66.4389 263.401L66.4304 263.379L66.2929 263.021L66.2826 262.994L66.2595 262.931L66.2513 262.908L66.2499 262.905L66.2453 262.891L66.225 262.835L66.2165 262.811L66.2143 262.805L66.2083 262.788L66.1905 262.737L66.182 262.713L66.1792 262.705L66.1724 262.685L66.1561 262.638L66.1483 262.615L66.1447 262.605L66.1369 262.582L66.1223 262.539L66.1152 262.518L66.111 262.505L66.1021 262.479L66.0889 262.439L66.0825 262.419L66.0779 262.405L66.0679 262.376L66.0562 262.338L66.0505 262.321L66.0456 262.305L66.0345 262.272L66.0239 262.238L66.0193 262.222L66.0139 262.205L66.0019 262.168L65.9926 262.137L65.9883 262.123L65.983 262.106L65.9698 262.063L65.9613 262.036L65.9581 262.025L65.9528 262.006L65.9386 261.959L65.9311 261.934L65.9286 261.925L65.9233 261.907L65.9077 261.854L65.9013 261.832L65.8998 261.826L65.8949 261.809L65.8778 261.75L65.8725 261.73L65.8714 261.726L65.8675 261.713L65.8483 261.645L65.8419 261.621C65.7787 261.391 65.7203 261.159 65.667 260.925L65.6621 260.904L65.6457 260.83L65.6383 260.798L65.6241 260.732L65.6152 260.691L65.6027 260.631L65.6002 260.62L65.5992 260.615L65.5924 260.584L65.5814 260.53L65.5793 260.519L65.5778 260.512L65.5707 260.477L65.5611 260.427L65.559 260.417L65.5576 260.41L65.5498 260.37L65.5409 260.325L65.5395 260.316L65.5377 260.307L65.5292 260.262L65.5217 260.221L65.5203 260.214L65.5185 260.205L65.5096 260.155L65.5029 260.117L65.5018 260.112L65.5004 260.103L65.4904 260.047L65.4847 260.013L65.4723 259.94L65.467 259.907L65.4662 259.903C65.3934 259.461 65.3383 259.015 65.301 258.567L65.2978 258.527L65.2928 258.464L65.2893 258.417L65.2854 258.361L65.2815 258.308L65.2783 258.256L65.2743 258.198L65.2715 258.15C65.2332 257.487 65.2341 256.824 65.274 256.161L65.2434 256.19L65.2857 255.983C65.2987 255.801 65.3147 255.619 65.3337 255.437L65.8334 250.632L70.4322 226.579C76.8378 182.221 77.2575 137.154 71.643 92.5962L69.2544 73.6404C83.6966 67.867 91.9048 58.0561 95.742 45.4143H231.864Z" fill="white" fill-opacity="0.44"/>
<mask id="mask0_14_49" style="mask-type:luminance" maskUnits="userSpaceOnUse" x="65" y="45" width="198" height="240">
<path d="M231.62 45C235.079 56.3953 242.09 65.4905 254.016 71.4015L254.054 71.4204L254.08 71.4336C255.365 72.0682 256.707 72.6662 258.108 73.2261L255.719 92.1819C250.105 136.74 250.524 181.807 256.93 226.165L261.529 250.217L262.029 255.023C262.048 255.205 262.063 255.387 262.077 255.569L262.119 255.775L262.088 255.747C262.128 256.413 262.129 257.077 262.091 257.735L262.088 257.784L262.084 257.839L262.081 257.894L262.077 257.943L262.073 258.003L262.065 258.112L262.061 258.153C262.024 258.6 261.969 259.046 261.896 259.488L261.89 259.525L261.879 259.588L261.872 259.633L261.862 259.689L261.861 259.697L261.859 259.703L261.853 259.741L261.844 259.79L261.842 259.8L261.841 259.807L261.833 259.848L261.825 259.893L261.823 259.901L261.821 259.91L261.813 259.955L261.805 259.995L261.803 260.003L261.801 260.013L261.792 260.062L261.784 260.098L261.783 260.105L261.781 260.115L261.77 260.17L261.763 260.201L261.762 260.206L261.76 260.217L261.747 260.277L261.741 260.304L261.724 260.383L261.718 260.409L261.717 260.416L261.7 260.49L261.695 260.511C261.642 260.744 261.584 260.976 261.52 261.207L261.514 261.23L261.495 261.299L261.491 261.312L261.49 261.316L261.484 261.335L261.467 261.395L261.462 261.412L261.461 261.418L261.455 261.44L261.439 261.492L261.434 261.511L261.431 261.52L261.424 261.545L261.409 261.592L261.404 261.61L261.401 261.621L261.392 261.649L261.379 261.691L261.374 261.709L261.37 261.722L261.36 261.753L261.348 261.791L261.343 261.808L261.338 261.823L261.328 261.857L261.317 261.891L261.312 261.907L261.306 261.924L261.294 261.961L261.284 261.991L261.28 262.005L261.273 262.025L261.26 262.065L261.251 262.091L261.247 262.103L261.24 262.125L261.225 262.168L261.218 262.191L261.214 262.201L261.206 262.224L261.19 262.271L261.183 262.291L261.18 262.299L261.172 262.323L261.154 262.374L261.148 262.391L261.146 262.397L261.137 262.421L261.117 262.477L261.112 262.49L261.111 262.494L261.103 262.516L261.08 262.579L261.075 262.591L261.069 262.607L260.932 262.965L260.923 262.987L260.899 263.048L260.888 263.074L260.882 263.088L260.861 263.141L260.849 263.169L260.847 263.176L260.841 263.189L260.822 263.236L260.809 263.265L260.806 263.274L260.799 263.289L260.781 263.332L260.769 263.36L260.764 263.372L260.756 263.39L260.74 263.428L260.728 263.456L260.722 263.47L260.713 263.49L260.698 263.525L260.686 263.55L260.679 263.567L260.669 263.59L260.655 263.621L260.644 263.645L260.636 263.664L260.624 263.689L260.611 263.718L260.602 263.74L260.592 263.761L260.579 263.789L260.567 263.814L260.558 263.833L260.547 263.858L260.533 263.888L260.522 263.91L260.514 263.927L260.502 263.954L260.486 263.986L260.477 264.006L260.47 264.021L260.456 264.05L260.439 264.085L260.431 264.102L260.425 264.115L260.409 264.146L260.391 264.183L260.384 264.197L260.379 264.208L260.362 264.242L260.343 264.281L260.337 264.292L260.333 264.301L260.314 264.337L260.293 264.379L260.289 264.387L260.286 264.393L260.266 264.432L260.243 264.476L260.239 264.485L260.217 264.527L260.193 264.573L260.19 264.577L260.165 264.625L260.142 264.67L260.119 264.712L260.093 264.761L260.09 264.766L260.067 264.808L260.043 264.852L260.037 264.862L260.016 264.902L259.993 264.943L259.989 264.949L259.984 264.958L259.963 264.995L259.942 265.033L259.937 265.043L259.93 265.053L259.911 265.088L259.891 265.124L259.884 265.135L259.876 265.149L259.858 265.181L259.838 265.214L259.83 265.228L259.821 265.243L259.804 265.273L259.786 265.303L259.776 265.32L259.765 265.338L259.749 265.365L259.733 265.393L259.721 265.412L259.709 265.432L259.694 265.457L259.679 265.482L259.666 265.504L259.652 265.526L259.639 265.548L259.625 265.571L259.609 265.595L259.595 265.619L259.582 265.639L259.57 265.659L259.553 265.686L259.537 265.712L259.526 265.73L259.514 265.748L259.495 265.777L259.478 265.805L259.468 265.82L259.458 265.836L259.437 265.868L259.418 265.897L259.41 265.91L259.402 265.923L259.378 265.959L259.358 265.99L259.351 266L259.344 266.01L259.319 266.049L259.297 266.081L259.292 266.089L259.287 266.097L259.258 266.14L259.236 266.172L259.232 266.178L259.228 266.184L259.195 266.232L259.174 266.263L259.169 266.27L259.127 266.331L259.111 266.355L259.049 266.443L259.048 266.444L259.031 266.469L258.99 266.527L258.985 266.534L258.963 266.565L258.928 266.612L258.924 266.618L258.92 266.624L258.897 266.655L258.867 266.697L258.861 266.705L258.855 266.713L258.833 266.743L258.805 266.781L258.797 266.791L258.789 266.802L258.768 266.83L258.742 266.865L258.732 266.878L258.723 266.89L258.702 266.917L258.679 266.948L258.667 266.963L258.656 266.978L258.637 267.003L258.615 267.031L258.601 267.049L258.588 267.065L258.571 267.088L258.55 267.114L258.535 267.134L258.52 267.152L258.504 267.173L258.485 267.197L258.468 267.219L258.452 267.239L258.436 267.258L258.42 267.279L258.4 267.304L258.382 267.326L258.368 267.342L258.353 267.361L258.331 267.388L258.312 267.412L258.3 267.426L258.287 267.442L258.263 267.472L258.242 267.497L258.231 267.51L258.22 267.523L258.193 267.555L258.17 267.582L258.162 267.593L258.152 267.604L258.122 267.639L258.099 267.667L258.092 267.675L258.084 267.684L258.051 267.723L258.026 267.751L258.021 267.757L258.015 267.764L257.978 267.807L257.953 267.835L257.945 267.844L257.901 267.893L257.879 267.919L257.878 267.92L257.805 268.002C257.262 268.605 256.676 269.168 256.052 269.686L255.967 269.756L255.881 269.825C255.512 270.124 255.13 270.407 254.736 270.673C254.525 270.816 254.31 270.954 254.093 271.087L254 271.143L253.906 271.199L253.867 271.222C252.311 272.141 250.617 272.802 248.85 273.18L248.742 273.203L248.635 273.225C248.404 273.271 248.172 273.312 247.939 273.349L247.879 273.358L247.838 273.364C247.67 273.389 247.502 273.412 247.334 273.432L247.114 273.457C246.53 273.519 245.94 273.55 245.346 273.55H182.989L182.799 273.552L182.61 273.554L182.289 273.564L182.232 273.566L182.043 273.575L181.902 273.584C181.635 273.6 181.368 273.622 181.102 273.65L180.916 273.671L180.846 273.679L180.542 273.718L180.356 273.745L180.17 273.773L179.985 273.804C178.884 273.991 177.802 274.282 176.755 274.671L176.733 274.678L176.558 274.745L176.384 274.813L176.075 274.939L175.822 275.047L175.353 275.259L175.184 275.34C174.867 275.494 174.554 275.657 174.246 275.829L174.186 275.862L174.114 275.904C173.724 276.126 173.343 276.362 172.971 276.614L172.907 276.657C172.543 276.905 172.187 277.166 171.84 277.442L163.559 284.023L155.279 277.442L155.13 277.325C154.453 276.799 153.74 276.322 152.995 275.898L152.933 275.862L152.897 275.842C152.526 275.634 152.149 275.44 151.766 275.259L151.596 275.18L151.426 275.103L151.254 275.028L151.082 274.955L150.997 274.919L150.67 274.787L150.561 274.745L150.386 274.678L150.297 274.646C149.271 274.269 148.212 273.988 147.134 273.804L146.949 273.773L146.763 273.745L146.577 273.718L146.39 273.693L146.203 273.671L146.016 273.65C145.704 273.617 145.391 273.592 145.076 273.575L144.887 273.566L144.698 273.559L144.509 273.554L144.319 273.552L144.13 273.55H81.7732C81.6623 273.55 81.5518 273.549 81.4416 273.547L81.4299 273.547C80.9537 273.537 80.4781 273.507 80.0044 273.457L79.8104 273.435C79.5566 273.405 79.3043 273.369 79.053 273.328L79.0236 273.324L78.9151 273.305C78.7581 273.278 78.6016 273.248 78.4464 273.217L78.3767 273.203L78.2694 273.18C76.131 272.723 74.1031 271.852 72.3012 270.617C72.0574 270.45 71.8179 270.277 71.5826 270.097L71.4959 270.03L71.4092 269.962C70.6611 269.374 69.9595 268.719 69.3138 268.002L69.2413 267.92L69.2395 267.919L69.2175 267.893L69.1734 267.844L69.1659 267.835L69.1411 267.807L69.1038 267.764L69.0981 267.757L69.0927 267.751L69.0682 267.723L69.0352 267.684L69.0273 267.675L69.0202 267.667L68.9964 267.639L68.9669 267.604L68.9573 267.593L68.9484 267.582L68.926 267.555L68.899 267.523L68.8877 267.51L68.8774 267.497L68.8564 267.472L68.8319 267.442L68.8187 267.426L68.8066 267.412L68.7874 267.388L68.7654 267.361L68.7505 267.342L68.7367 267.326L68.7189 267.304L68.6993 267.279L68.6826 267.258L68.6673 267.239L68.6514 267.219L68.6336 267.197L68.6151 267.173L68.5984 267.152L68.5841 267.134L68.5685 267.114L68.5483 267.088L68.5305 267.065L68.5177 267.049L68.5042 267.031L68.4822 267.003L68.463 266.978L68.452 266.963L68.4402 266.948L68.4164 266.917L68.3958 266.89L68.3869 266.878L68.377 266.865L68.351 266.83L68.3297 266.802L68.3222 266.791L68.3141 266.781L68.2863 266.743L68.264 266.713L68.2583 266.705L68.2519 266.697L68.2217 266.655L68.1989 266.624L68.1946 266.618L68.1904 266.612L68.1563 266.565L68.1342 266.534L68.1293 266.527L68.0877 266.469L68.0706 266.444L68.0695 266.443L68.0081 266.355L67.9494 266.27L67.9448 266.263L67.9235 266.232L67.8905 266.184L67.8865 266.178L67.883 266.172L67.8609 266.14L67.8321 266.097L67.8268 266.089L67.8215 266.081L67.8002 266.049L67.7746 266.01L67.7675 266L67.7607 265.99L67.7405 265.959L67.7173 265.923L67.7088 265.91L67.7006 265.897L67.6818 265.868L67.6609 265.836L67.6509 265.82L67.6413 265.805L67.6236 265.777L67.6047 265.748L67.5933 265.73L67.5823 265.712L67.5663 265.686L67.5493 265.659L67.5365 265.639L67.524 265.619L67.5095 265.595L67.4942 265.571L67.4803 265.548L67.4668 265.526L67.4533 265.504L67.4401 265.482L67.4249 265.457L67.4096 265.432L67.3979 265.412L67.3862 265.393L67.3698 265.365L67.3534 265.338L67.3431 265.32L67.3332 265.303L67.315 265.273L67.2976 265.243L67.2887 265.228L67.2806 265.214L67.2614 265.181L67.2429 265.149L67.2351 265.135L67.2283 265.124L67.2081 265.088L67.1885 265.053L67.1821 265.043L67.1768 265.033L67.1555 264.995L67.1345 264.958L67.1299 264.949L67.126 264.943L67.1032 264.902L67.0815 264.862L67.0759 264.852L67.0517 264.808L67.029 264.766L67.0261 264.761L67.0002 264.712L66.9771 264.67L66.9536 264.625L66.9284 264.577L66.9259 264.573L66.9021 264.527L66.8804 264.485L66.8754 264.476L66.853 264.432L66.8328 264.393L66.8299 264.387L66.8257 264.379L66.8047 264.337L66.7862 264.301L66.782 264.292L66.7763 264.281L66.7567 264.242L66.7397 264.208L66.7347 264.197L66.7279 264.183L66.7094 264.146L66.6942 264.115L66.6881 264.102L66.68 264.085L66.6633 264.05L66.649 264.021L66.6419 264.006L66.6327 263.986L66.6171 263.954L66.6046 263.927L66.5964 263.91L66.5858 263.888L66.5719 263.858L66.5605 263.833L66.5517 263.814L66.54 263.789L66.5272 263.761L66.5172 263.74L66.5076 263.718L66.4944 263.689L66.4831 263.664L66.4745 263.645L66.4639 263.621L66.45 263.59L66.4397 263.567L66.4326 263.55L66.4212 263.525L66.406 263.49L66.3971 263.47L66.391 263.456L66.379 263.428L66.3626 263.39L66.3548 263.372L66.3498 263.36L66.3377 263.332L66.3196 263.289L66.3132 263.274L66.3096 263.265L66.2972 263.236L66.2777 263.189L66.2723 263.176L66.2698 263.169L66.2578 263.141L66.2364 263.088L66.2307 263.074L66.2201 263.048L66.1955 262.987L66.187 262.965L66.0495 262.607L66.0392 262.579L66.0161 262.516L66.0079 262.494L66.0065 262.49L66.0019 262.477L65.9816 262.421L65.9731 262.397L65.9709 262.391L65.9649 262.374L65.9471 262.323L65.9386 262.299L65.9358 262.291L65.929 262.271L65.9127 262.224L65.9049 262.201L65.9013 262.191L65.8935 262.168L65.8789 262.125L65.8718 262.103L65.8675 262.091L65.8586 262.065L65.8455 262.025L65.8391 262.005L65.8345 261.991L65.8245 261.961L65.8128 261.924L65.8071 261.907L65.8022 261.891L65.7911 261.857L65.7805 261.823L65.7759 261.808L65.7705 261.791L65.7584 261.753L65.7492 261.722L65.7449 261.709L65.7396 261.691L65.7264 261.649L65.7179 261.621L65.7147 261.61L65.7094 261.592L65.6952 261.545L65.6877 261.52L65.6852 261.511L65.6799 261.492L65.6643 261.44L65.6579 261.418L65.6564 261.412L65.6515 261.395L65.6344 261.335L65.6291 261.316L65.628 261.312L65.6241 261.299L65.6049 261.23L65.5985 261.207C65.5353 260.976 65.4769 260.744 65.4236 260.511L65.4187 260.49L65.4023 260.416L65.3949 260.383L65.3806 260.318L65.3717 260.277L65.3593 260.217L65.3568 260.206L65.3557 260.201L65.349 260.17L65.338 260.115L65.3359 260.105L65.3344 260.098L65.3273 260.062L65.3177 260.013L65.3156 260.003L65.3142 259.995L65.3064 259.955L65.2975 259.91L65.2961 259.901L65.2943 259.893L65.2858 259.848L65.2783 259.807L65.2769 259.8L65.2751 259.79L65.2662 259.741L65.2595 259.703L65.2584 259.697L65.257 259.689L65.247 259.633L65.2413 259.599L65.2289 259.525L65.2236 259.493L65.2228 259.488C65.15 259.047 65.0949 258.601 65.0576 258.153L65.0544 258.112L65.0494 258.05L65.0459 258.003L65.042 257.947L65.0381 257.894L65.0349 257.842L65.0309 257.784L65.0281 257.735C64.9898 257.073 64.9907 256.409 65.0306 255.747L65 255.775L65.0423 255.569C65.0553 255.386 65.0713 255.205 65.0903 255.023L65.59 250.217L70.1887 226.165C76.5944 181.807 77.0141 136.74 71.3996 92.1819L69.011 73.2261C83.4532 67.4527 91.6614 57.6417 95.4986 45H231.62Z" fill="white"/>
</mask>
<g mask="url(#mask0_14_49)">
<path fill-rule="evenodd" clip-rule="evenodd" d="M65.2305 39.274H165.526V160.458H65.2305V39.274Z" fill="#D9333F"/>
<path fill-rule="evenodd" clip-rule="evenodd" d="M164.527 39.81H263.948V159.936H164.527V39.81Z" fill="#75BA39"/>
<path fill-rule="evenodd" clip-rule="evenodd" d="M65 160H165V284H65V160Z" fill="#F0E639"/>
<path fill-rule="evenodd" clip-rule="evenodd" d="M164.527 159.936H263.948V292.61H164.527V159.936Z" fill="#1EC2E2"/>
</g>
<path fill-rule="evenodd" clip-rule="evenodd" d="M96.7327 146.583C94.7993 145.962 93.6507 143.975 94.0766 141.988C101.562 107.993 128.247 82.8364 159.973 82.8364C191.699 82.8364 218.385 107.993 225.914 141.978C226.344 143.988 225.183 145.997 223.227 146.625C216.901 148.623 212.33 154.555 212.33 161.548C212.33 168.541 216.901 174.474 223.214 176.514C225.148 177.134 226.296 179.121 225.87 181.109C218.385 215.103 191.699 240.26 159.973 240.26C128.247 240.26 101.562 215.103 94.0332 181.118C93.6027 179.108 94.7642 177.099 96.7194 176.471C103.045 174.474 107.617 168.541 107.617 161.548C107.617 154.555 103.045 148.623 96.7327 146.583Z" fill="#EAC00B"/>
<path fill-rule="evenodd" clip-rule="evenodd" d="M105.787 140.899C104.885 140.393 104.458 139.325 104.764 138.336C112.941 112.275 134.549 93.644 159.907 93.644C185.093 93.644 206.613 112.021 214.971 137.805C215.299 138.833 214.834 139.948 213.872 140.437C206.253 144.392 201.05 152.366 201.059 161.548C201.068 170.73 206.287 178.706 213.912 182.667C214.871 183.153 215.335 184.263 215.01 185.288C206.708 211.074 185.222 229.452 160.036 229.452C134.678 229.452 113.034 210.822 104.803 184.763C104.495 183.771 104.921 182.699 105.826 182.19C112.974 178.094 117.788 170.38 117.779 161.548C117.771 152.716 112.941 145 105.787 140.899Z" fill="#844139"/>
<path d="M136.719 146.149H187.572V148.44C184.775 148.44 182.868 148.694 181.978 149.331C181.088 149.84 180.325 150.603 179.817 151.367C179.181 152.257 178.927 154.93 178.927 159.511V189.669C178.927 194.122 179.181 196.667 179.69 197.558C180.071 198.322 180.834 199.085 181.724 199.721C182.741 200.358 184.648 200.739 187.572 200.739V203.03L164 203.03L164 200.23C167.178 200.23 163.544 200.612 164.815 200.23C165.959 199.848 166.976 199.085 167.612 197.813C168.375 196.54 168.756 193.868 168.756 189.669V150.094H149.814V174.144C149.814 183.179 149.432 189.541 148.542 193.232C147.78 196.922 146.127 199.594 143.839 201.375C141.423 203.157 138.626 204.048 135.575 204.048C130.363 204.048 127.693 201.884 127.693 197.431C127.693 195.904 128.074 194.759 128.964 193.741C129.854 192.85 130.871 192.341 132.27 192.341C133.668 192.341 135.067 192.977 136.338 194.122C137.863 195.777 139.135 196.54 140.025 196.54C141.804 196.54 143.203 194.886 144.093 191.832C144.856 188.651 145.364 183.179 145.364 175.417V162.819C145.364 156.329 144.856 152.385 143.966 150.985C142.949 149.585 140.533 148.822 136.719 148.44V146.149Z" fill="#EAC00B"/>
<path fill-rule="evenodd" clip-rule="evenodd" d="M149.912 141.595L138 118.233L153.014 125.379L164.174 109L175.335 125.379L190.349 118.233L178.437 141.595H149.912Z" fill="#EAC00B"/>
<rect x="164" y="17" width="152" height="292" fill="white"/>
</g>
<path fill-rule="evenodd" clip-rule="evenodd" d="M247.256 72.1001L251.774 48.969L258.246 61.9536L274.892 55.8783L273.665 73.5557L287.935 76.1779L266.96 86.9266L247.256 72.1001Z" fill="#EAC00B"/>
<path d="M186.013 183.497L226.866 159.506L268.048 248.095L244.397 261.985L186.013 183.497Z" fill="#1EC2E2"/>
<path d="M235.542 159.394L194.74 135.316L237.18 81.7985L260.802 95.7383L235.542 159.394Z" fill="#EAC00B"/>
<path d="M164 195.5V122L230.278 135.481C233.54 136.145 235.883 139.013 235.883 142.341V179.207L164 195.5Z" fill="#75BA39"/>
<path d="M287.994 224.96C237.438 275.728 164 284.5 164 284.5V306.5C164 306.5 241.838 289.713 287.702 249.645C293.048 244.974 299.107 238.81 304.394 233.164C309.409 227.808 305.035 219.394 297.74 220.178C294.038 220.576 290.621 222.322 287.994 224.96Z" fill="#844139"/>
<path d="M217.182 106.974L237.572 71.8464C239.377 68.7363 243.494 67.9018 246.368 70.0634L299.672 110.158C302.1 111.984 302.78 115.337 301.255 117.965L295.422 128.013C292.407 133.207 286.018 135.372 280.467 133.082L217.182 106.974Z" fill="#1EC2E2"/>
<path d="M164 122L187.934 126.842L187.934 140.526C187.934 152.091 180.569 162.372 169.618 166.092L164 168L164 122Z" fill="#D9333F"/>
<defs>
<clipPath id="clip0_14_49">
<rect width="226" height="277" fill="white" transform="translate(47 32)"/>
</clipPath>
</defs>
</svg>
